PathFileType	4	(X/Y/Z)	/Users/itak/Documents/Research/Walk-IL/dataset/trc/00296_00010.trc
DataRate	CameraRate	NumFrames	NumMarkers	Units	OrigDataRate	OrigDataStartFrame	OrigNumFrames
100.000000	100.000000	4	53	mm	100.000000	0	669
Frame#	Time	RPSI			LPSI			L3			STRN			T10			C7			CLAV			RBAK			LBAK			LSHO			LUPA			LAEL			LAOL			LWTS			LWPS			LFRA			LIFD			LHPS			LHTS			RSHO			RUPA			RAEL			RAOL			RWTS			RWPS			RFRA			RIFD			RHTS			RHPS			RBHD			LFHD			RFHD			LBHD			RHIP			RASI			LASI			LKNE			LTHI			LANK			LTIP			LTOE			LMT1			LMT5			LHEE			RKNE			RTHI			RANK			RTIP			RTOE			RMT1			RMT5			RHEE			LHIP			
		X1	Y1	Z1	X2	Y2	Z2	X3	Y3	Z3	X4	Y4	Z4	X5	Y5	Z5	X6	Y6	Z6	X7	Y7	Z7	X8	Y8	Z8	X9	Y9	Z9	X10	Y10	Z10	X11	Y11	Z11	X12	Y12	Z12	X13	Y13	Z13	X14	Y14	Z14	X15	Y15	Z15	X16	Y16	Z16	X17	Y17	Z17	X18	Y18	Z18	X19	Y19	Z19	X20	Y20	Z20	X21	Y21	Z21	X22	Y22	Z22	X23	Y23	Z23	X24	Y24	Z24	X25	Y25	Z25	X26	Y26	Z26	X27	Y27	Z27	X28	Y28	Z28	X29	Y29	Z29	X30	Y30	Z30	X31	Y31	Z31	X32	Y32	Z32	X33	Y33	Z33	X34	Y34	Z34	X35	Y35	Z35	X36	Y36	Z36	X37	Y37	Z37	X38	Y38	Z38	X39	Y39	Z39	X40	Y40	Z40	X41	Y41	Z41	X42	Y42	Z42	X43	Y43	Z43	X44	Y44	Z44	X45	Y45	Z45	X46	Y46	Z46	X47	Y47	Z47	X48	Y48	Z48	X49	Y49	Z49	X50	Y50	Z50	X51	Y51	Z51	X52	Y52	Z52	X53	Y53	Z53	

1	0	395.0198974609375	1008.968688964844	1177.079223632812	357.546142578125	1003.665466308594	1347.653198242188	358.8440856933594	1076.784545898438	1259.96337890625	118.1071319580078	1257.808471679688	1198.523559570312	377.1531677246094	1191.350708007812	1270.197143554688	326.1659545898438	1435.409790039062	1288.9599609375	176.1433563232422	1358.79541015625	1225.49658203125	402.2326049804688	1302.790161132812	1221.585205078125	307.8775939941406	1392.999389648438	1387.673461914062	205.7929382324219	1397.8427734375	1408.2578125	212.2990875244141	1279.797119140625	1483.090942382812	205.8376770019531	1078.317749023438	1498.361694335938	276.0912170410156	1062.390258789062	1450.640869140625	132.1927032470703	853.7951049804688	1450.403076171875	159.2204132080078	847.4638671875	1516.97021484375	191.4030914306641	974.2264404296875	1509.728149414062	156.6335601806641	672.9244995117188	1462.967041015625	162.3846893310547	759.91162109375	1522.6328125	111.9088973999023	753.4056396484375	1477.663818359375	314.5895080566406	1425.501098632812	1116.739379882812	342.4558715820312	1371.645629882812	1050.813842773438	343.7286376953125	1113.439086914062	967.9562377929688	349.756103515625	1089.67578125	1060.17431640625	212.7077789306641	899.739013671875	954.40869140625	271.5034484863281	901.4389038085938	894.3563842773438	316.9316101074219	1052.050048828125	939.7557373046875	191.7212219238281	718.0142822265625	929.8358154296875	177.3515930175781	792.0508422851562	913.8271484375	237.1294860839844	792.4762573242188	874.9862670898438	319.4165954589844	1576.265502929688	1313.893798828125	164.6829986572266	1653.780151367188	1189.601440429688	255.7658233642578	1653.587646484375	1169.157958984375	175.7495269775391	1566.59765625	1344.031494140625	317.8239135742188	959.877197265625	1054.817138671875	185.8437042236328	963.9938354492188	1097.33837890625	147.1050415039062	964.0421752929688	1346.906982421875	228.9141998291016	485.7391052246094	1370.543701171875	227.1729583740234	626.66943359375	1396.863647460938	300.6349487304688	44.05981826782227	1349.879638671875	269.2931518554688	261.2282104492188	1371.775634765625	102.7534255981445	40.93355178833008	1260.887939453125	177.1716003417969	33.36631011962891	1230.913696289062	176.8766937255859	42.5056037902832	1343.18310546875	352.7586059570312	39.1203498840332	1296.628784179688	280.6651916503906	486.2279357910156	1078.506225585938	256.1630249023438	748.6005859375	1045.416015625	327.2986145019531	44.55051422119141	1100.97314453125	271.5177307128906	364.6786804199219	1088.60400390625	129.4752197265625	43.27534484863281	1144.476684570312	186.6593627929688	38.53059005737305	1186.683471679688	223.7277374267578	38.50414657592773	1076.24462890625	377.7855834960938	35.50244140625	1150.64453125	nan	nan	nan	
2	0.01	394.9921264648438	1008.978759765625	1177.0849609375	357.6221618652344	1003.701477050781	1347.706665039062	358.8687438964844	1076.7529296875	1259.903076171875	118.1104049682617	1257.812866210938	1198.625732421875	377.1997985839844	1191.320922851562	1270.030151367188	326.2938842773438	1435.3955078125	1288.814697265625	176.1527252197266	1358.7646484375	1225.5537109375	402.2171325683594	1302.7734375	1221.365356445312	308.0700988769531	1392.905517578125	1387.477783203125	206.0533752441406	1397.829345703125	1408.24169921875	212.7041168212891	1279.786499023438	1483.119384765625	206.4245910644531	1078.4345703125	1498.489135742188	276.4808959960938	1062.4228515625	1450.620727539062	132.69091796875	853.7739868164062	1450.933959960938	159.9605255126953	847.3622436523438	1517.329467773438	191.9990844726562	974.237548828125	1509.923095703125	156.8956604003906	672.8388671875	1462.869506835938	163.2381896972656	759.7772216796875	1522.681030273438	112.5824584960938	753.33984375	1477.928100585938	314.4412841796875	1425.475341796875	1116.590698242188	342.2279968261719	1371.576416015625	1050.663208007812	343.5541687011719	1113.243286132812	968.1307983398438	349.699951171875	1089.629760742188	1060.380004882812	212.4745635986328	899.598388671875	955.0311889648438	271.2891235351562	901.1289672851562	894.9203491210938	316.8002624511719	1051.821899414062	940.0452270507812	191.2790832519531	717.8515014648438	930.561767578125	176.9179382324219	791.7994384765625	914.5447998046875	236.7869415283203	792.2030029296875	875.7257080078125	319.4649963378906	1576.123046875	1313.67822265625	164.5848236083984	1653.742065429688	1189.716918945312	255.6165924072266	1653.573120117188	1169.117797851562	175.9329528808594	1566.587890625	1344.147827148438	317.6796569824219	959.8583374023438	1054.871948242188	185.7194366455078	963.8742065429688	1097.489013671875	147.1067352294922	964.0906372070312	1347.063110351562	229.1019897460938	485.7042236328125	1370.67431640625	227.2688293457031	626.6343994140625	1397.086181640625	300.6423645019531	44.03993988037109	1349.910278320312	269.3595275878906	261.1555480957031	1371.823974609375	102.778434753418	40.95653533935547	1260.887817382812	177.2123107910156	33.40978240966797	1230.93896484375	176.8703002929688	42.50770950317383	1343.190795898438	352.7785949707031	39.13630294799805	1296.644653320312	280.7126159667969	486.2405090332031	1078.5546875	256.0431213378906	748.5791015625	1045.538818359375	327.2830505371094	44.54528427124023	1100.960205078125	271.5325317382812	364.6809997558594	1088.6396484375	129.4678802490234	43.27774047851562	1144.49560546875	186.6737670898438	38.52996826171875	1186.695922851562	223.7251281738281	38.51655960083008	1076.257568359375	377.7835388183594	35.49368286132812	1150.631469726562	nan	nan	nan	
3	0.02	394.9597473144531	1008.999755859375	1177.088012695312	357.7153930664062	1003.751098632812	1347.767333984375	358.8890686035156	1076.718017578125	1259.835571289062	118.0880584716797	1257.81884765625	1198.77490234375	377.2405700683594	1191.284301757812	1269.827392578125	326.4286499023438	1435.377685546875	1288.631591796875	176.1453857421875	1358.723388671875	1225.635620117188	402.1856384277344	1302.75146484375	1221.094116210938	308.3128967285156	1392.811889648438	1387.25390625	206.38232421875	1397.813598632812	1408.232177734375	213.2108154296875	1279.767578125	1483.158081054688	207.1433868408203	1078.551147460938	1498.629760742188	276.9708862304688	1062.451416015625	1450.571166992188	133.2872467041016	853.7870483398438	1451.560668945312	160.8884582519531	847.2325439453125	1517.74267578125	192.7573852539062	974.2605590820312	1510.168212890625	157.1500244140625	672.6975708007812	1462.6748046875	164.2437133789062	759.5775756835938	1522.681640625	113.3809585571289	753.270751953125	1478.20068359375	314.2424011230469	1425.438354492188	1116.405029296875	341.9284362792969	1371.47509765625	1050.478637695312	343.3212890625	1112.971923828125	968.385009765625	349.5993041992188	1089.558959960938	1060.6748046875	212.1622772216797	899.3869018554688	955.8275756835938	271.0209350585938	900.7081298828125	895.6779174804688	316.6141662597656	1051.507568359375	940.4464111328125	190.7043151855469	717.625732421875	931.56494140625	176.4373626708984	791.4746704101562	915.4818115234375	236.3667755126953	791.8178100585938	876.7118530273438	319.5242919921875	1575.96435546875	1313.419555664062	164.4624176025391	1653.699462890625	1189.856079101562	255.4405364990234	1653.552368164062	1169.061767578125	176.1406402587891	1566.582641601562	1344.275268554688	317.4923706054688	959.8397216796875	1054.939575195312	185.5834808349609	963.7345581054688	1097.662475585938	147.1247863769531	964.1325073242188	1347.265869140625	229.3481597900391	485.6614379882812	1370.841674804688	227.4033508300781	626.5984497070312	1397.358642578125	300.6532287597656	44.0151481628418	1349.945068359375	269.4598693847656	261.0752563476562	1371.902954101562	102.806037902832	40.983642578125	1260.888305664062	177.2652282714844	33.46467971801758	1230.975219726562	176.8630676269531	42.51029205322266	1343.201293945312	352.79833984375	39.15244674682617	1296.661865234375	280.7884826660156	486.25732421875	1078.608520507812	255.9052429199219	748.553955078125	1045.682006835938	327.2681274414062	44.53894805908203	1100.9462890625	271.5606079101562	364.6872253417969	1088.683349609375	129.4611206054688	43.2847785949707	1144.51513671875	186.6920776367188	38.52952575683594	1186.7099609375	223.7237548828125	38.53217315673828	1076.27099609375	377.7830505371094	35.48321151733398	1150.61572265625	271.3026428222656	955.6397094726562	1428.02978515625	
4	0.03	394.9247741699219	1009.034912109375	1177.086303710938	357.8202209472656	1003.814025878906	1347.830200195312	358.8984375	1076.684204101562	1259.767456054688	118.0243530273438	1257.825317382812	1198.976440429688	377.2659301757812	1191.24267578125	1269.6015625	326.5533142089844	1435.356689453125	1288.418579101562	176.1114349365234	1358.671752929688	1225.745239257812	402.1331787109375	1302.724609375	1220.786376953125	308.5961608886719	1392.731811523438	1387.019409179688	206.7646331787109	1397.797119140625	1408.234985351562	213.7998199462891	1279.741088867188	1483.209228515625	207.9624633789062	1078.652709960938	1498.776000976562	277.5452270507812	1062.477416992188	1450.491333007812	133.9544372558594	853.845703125	1452.2373046875	161.9580688476562	847.0833129882812	1518.173095703125	193.6474456787109	974.2940063476562	1510.448486328125	157.3601226806641	672.508056640625	1462.373291015625	165.3256378173828	759.31787109375	1522.612182617188	114.2449798583984	753.2093505859375	1478.440307617188	313.994140625	1425.387817382812	1116.191772460938	341.5625305175781	1371.338500976562	1050.270141601562	343.0337829589844	1112.62353515625	968.7239990234375	349.4435729980469	1089.459106445312	1061.062744140625	211.7826690673828	899.0938110351562	956.782958984375	270.7098999023438	900.1770629882812	896.6217651367188	316.3694458007812	1051.105834960938	940.9601440429688	190.0333251953125	717.3278198242188	932.838623046875	175.9500579833984	791.0741577148438	916.6273193359375	235.8908081054688	791.3146362304688	877.9326171875	319.5963134765625	1575.809204101562	1313.138061523438	164.3221282958984	1653.656860351562	1190.008911132812	255.2509460449219	1653.524291992188	1168.989013671875	176.3535308837891	1566.584838867188	1344.399291992188	317.2687072753906	959.8248901367188	1055.01708984375	185.4470672607422	963.5823974609375	1097.848388671875	147.1662292480469	964.1590576171875	1347.51123046875	229.6464691162109	485.6121520996094	1371.038818359375	227.5795745849609	626.5672607421875	1397.662109375	300.66748046875	43.98626708984375	1349.97998046875	269.5995178222656	260.9998779296875	1372.018798828125	102.8335647583008	41.01334381103516	1260.889770507812	177.3250579833984	33.52605819702148	1231.01904296875	176.8558502197266	42.51345443725586	1343.214599609375	352.8157653808594	39.16699981689453	1296.678344726562	280.8970031738281	486.2779846191406	1078.661865234375	255.7615661621094	748.5263061523438	1045.834716796875	327.256103515625	44.53147888183594	1100.9326171875	271.6044921875	364.6988220214844	1088.7314453125	129.4558715820312	43.29654693603516	1144.533569335938	186.7133636474609	38.52977752685547	1186.7236328125	223.7246398925781	38.54967498779297	1076.283203125	377.7850036621094	35.47197723388672	1150.598876953125	271.5220642089844	955.8195190429688	1428.231201171875	
